<mxfile host="app.diagrams.net" modified="2024-05-20T20:12:05.311Z" agent="Mozilla/5.0 (Windows NT 10.0; Win64; x64) AppleWebKit/537.36 (KHTML, like Gecko) Chrome/125.0.0.0 Safari/537.36" version="24.3.1" etag="9wDp2X4d3oTGSlzRrsXm" type="github">
  <diagram name="Page-1" id="hqWnf-EY9F_l274UAYm3">
    <mxGraphModel>
      <root>
        <mxCell id="0" />
        <mxCell id="1" parent="0" />
      </root>
    </mxGraphModel>
  </diagram>
</mxfile>
